<svg id="Layer_1" data-name="Layer 1" xmlns="http://www.w3.org/2000/svg" viewBox="0 0 748.81 725.16"><defs><style>.cls-1,.cls-5{fill:#c62227;}.cls-1,.cls-2,.cls-3{stroke:#231f20;stroke-miterlimit:10;}.cls-1,.cls-2{stroke-width:3px;}.cls-2,.cls-3{fill:none;}.cls-3{stroke-width:4px;}.cls-4{fill:#4f4546;}.cls-6{fill:#231f20;}</style></defs><path class="cls-1" d="M1003.29,620.73S931.87,674.3,920,765.82c0,0-42.22.56-14.32,91.51,0,0,15.62-59.15,31.81-37.94S901.73,870.73,914,894.72s44.64,0,44.64,0c64.62,21,78.78-48.46,24.55-55.24,0,0-13.39-17.86,4.47-47.43,0,0,21.79,4.46,28.19,43.52,0,0,19.8-86.49-31-85.93C984.88,749.64,964.79,736.24,1003.29,620.73Z" transform="translate(-658.69 -464.01)"/><path class="cls-1" d="M887.78,665.37S807.43,725.08,807.43,796c0,0-49.11,21.76-24.56,96.54,0,0,23.44-74.78,35.16-11.72-64,47.59.86,87,26.78,34.6,0,0,31.25,17.86,43-15.07-1.41-44.13-49.16-13.5-44.64-58.59,0,0,13.3-11.16,53,30.69,0,0-13.9-71.43-53.52-98.77C842.58,773.63,847.05,717.83,887.78,665.37Z" transform="translate(-658.69 -464.01)"/><path class="cls-1" d="M1061.07,620.73s71.43,53.57,83.33,145.09c0,0,42.23.56,14.33,91.51,0,0-15.63-59.15-31.81-37.94s35.71,51.34,23.44,75.33-44.65,0-44.65,0c-64.61,21-78.77-48.46-24.55-55.24,0,0,13.39-17.86-4.46-47.43,0,0-21.8,4.46-28.2,43.52,0,0-19.79-86.49,31-85.93C1079.49,749.64,1099.58,736.24,1061.07,620.73Z" transform="translate(-658.69 -464.01)"/><path class="cls-1" d="M1176.58,665.37s80.36,59.71,80.36,130.58c0,0,49.11,21.76,24.55,96.54,0,0-23.43-74.78-35.15-11.72,64,47.59-.87,87-26.79,34.6,0,0-31.25,17.86-43-15.07,1.42-44.13,49.17-13.5,44.65-58.59,0,0-13.3-11.16-53,30.69,0,0,13.9-71.43,53.52-98.77C1221.78,773.63,1217.32,717.83,1176.58,665.37Z" transform="translate(-658.69 -464.01)"/><line class="cls-2" x1="350.18" y1="295.78" x2="358.47" y2="281.04"/><line class="cls-2" x1="386.01" y1="283.21" x2="396.8" y2="295.78"/><path class="cls-2" d="M1050.52,732c-.44,26-39.11,26-39.55,0C1011.41,706,1050.08,706,1050.52,732Z" transform="translate(-658.69 -464.01)"/><path class="cls-2" d="M1048.31,692c-.39,23.1-34.74,23.09-35.14,0C1013.57,668.89,1047.92,668.89,1048.31,692Z" transform="translate(-658.69 -464.01)"/><path class="cls-2" d="M1043.39,659.11c-.08,16.54-25.22,16.54-25.29,0S1043.32,642.58,1043.39,659.11Z" transform="translate(-658.69 -464.01)"/><path class="cls-2" d="M1036.82,637.74c.11,7.88-12.27,7.88-12.15,0C1024.56,629.86,1036.93,629.86,1036.82,637.74Z" transform="translate(-658.69 -464.01)"/><path class="cls-2" d="M1030.74,905.39l-25.83,21.47-29.6-16.15L946.6,934,910.71,914.3l-26,31.4-44-6.3-41.27,26.94s-36.78-19.74-57.41-157.9l11.35,1.72" transform="translate(-658.69 -464.01)"/><path class="cls-2" d="M785.82,794.94c-.44,26-39.11,26-39.56,0C746.71,769,785.38,769,785.82,794.94Z" transform="translate(-658.69 -464.01)"/><path class="cls-2" d="M797.51,758.79c-.4,23.09-34.75,23.09-35.14,0C762.76,735.7,797.12,735.7,797.51,758.79Z" transform="translate(-658.69 -464.01)"/><path class="cls-2" d="M812.61,725.89c-.37,21.47-32.31,21.47-32.67,0C780.31,704.41,812.25,704.42,812.61,725.89Z" transform="translate(-658.69 -464.01)"/><path class="cls-2" d="M836.05,699.57c-.37,21.47-32.31,21.47-32.67,0C803.75,678.1,835.69,678.1,836.05,699.57Z" transform="translate(-658.69 -464.01)"/><path class="cls-2" d="M854.75,674.41c-.08,18.24-27.81,18.24-27.89,0C826.94,656.18,854.67,656.18,854.75,674.41Z" transform="translate(-658.69 -464.01)"/><path class="cls-2" d="M877.2,653.5c-.09,18.24-27.81,18.23-27.89,0C849.39,635.26,877.12,635.27,877.2,653.5Z" transform="translate(-658.69 -464.01)"/><path class="cls-2" d="M893.51,639.56c.18,11.94-18.58,11.94-18.4,0C874.93,627.62,893.69,627.62,893.51,639.56Z" transform="translate(-658.69 -464.01)"/><path class="cls-2" d="M906.55,631.35c.11,7.88-12.26,7.88-12.15,0C894.29,623.47,906.66,623.47,906.55,631.35Z" transform="translate(-658.69 -464.01)"/><path class="cls-2" d="M916.81,625.84c.09,5.68-8.83,5.68-8.75,0C908,620.17,916.9,620.17,916.81,625.84Z" transform="translate(-658.69 -464.01)"/><path class="cls-2" d="M925.55,621.22c.06,4.55-7.09,4.55-7,0S925.61,616.67,925.55,621.22Z" transform="translate(-658.69 -464.01)"/><path class="cls-2" d="M1030.74,905.39l25.83,21.47,29.61-16.15L1114.89,934l35.88-19.74,26,31.4,44-6.3L1262,966.34s36.79-19.74,57.42-157.9l-11.35,1.72" transform="translate(-658.69 -464.01)"/><path class="cls-2" d="M1275.67,794.63c.44,26,39.11,26,39.55,0C1314.78,768.63,1276.11,768.64,1275.67,794.63Z" transform="translate(-658.69 -464.01)"/><path class="cls-2" d="M1264,758.48c.39,23.09,34.74,23.09,35.14,0C1298.72,735.38,1264.37,735.39,1264,758.48Z" transform="translate(-658.69 -464.01)"/><path class="cls-2" d="M1248.87,725.57c.37,21.48,32.31,21.47,32.68,0C1281.18,704.1,1249.24,704.1,1248.87,725.57Z" transform="translate(-658.69 -464.01)"/><path class="cls-2" d="M1225.43,699.26c.37,21.47,32.31,21.47,32.68,0C1257.74,677.78,1225.8,677.79,1225.43,699.26Z" transform="translate(-658.69 -464.01)"/><path class="cls-2" d="M1206.74,674.1c.08,18.24,27.81,18.23,27.89,0C1234.54,655.86,1206.82,655.87,1206.74,674.1Z" transform="translate(-658.69 -464.01)"/><path class="cls-2" d="M1184.29,653.19c.08,18.23,27.81,18.23,27.89,0C1212.1,635,1184.37,635,1184.29,653.19Z" transform="translate(-658.69 -464.01)"/><path class="cls-2" d="M1168,639.24c-.17,12,18.59,12,18.41,0C1186.55,627.3,1167.8,627.3,1168,639.24Z" transform="translate(-658.69 -464.01)"/><path class="cls-2" d="M1154.94,631c-.12,7.88,12.26,7.88,12.14,0C1167.2,623.16,1154.82,623.16,1154.94,631Z" transform="translate(-658.69 -464.01)"/><path class="cls-2" d="M1144.67,625.53c-.08,5.68,8.84,5.68,8.75,0C1153.51,619.85,1144.59,619.85,1144.67,625.53Z" transform="translate(-658.69 -464.01)"/><path class="cls-2" d="M1135.94,620.91c-.07,4.55,7.08,4.55,7,0S1135.87,616.36,1135.94,620.91Z" transform="translate(-658.69 -464.01)"/><line class="cls-2" x1="202.23" y1="327.21" x2="216.41" y2="299.05"/><line class="cls-2" x1="237.41" y1="299.05" x2="247.85" y2="308.15"/><path class="cls-2" d="M904.09,746.28c-.45,26-39.12,26-39.56,0C865,720.28,903.65,720.29,904.09,746.28Z" transform="translate(-658.69 -464.01)"/><path class="cls-2" d="M911.08,708.94c-.39,23.09-34.75,23.09-35.14,0C876.34,685.84,910.69,685.85,911.08,708.94Z" transform="translate(-658.69 -464.01)"/><path class="cls-2" d="M923,678.36c-.08,18.24-27.8,18.24-27.88,0C895.2,660.13,922.93,660.13,923,678.36Z" transform="translate(-658.69 -464.01)"/><path class="cls-2" d="M936.94,660.16c.17,11.94-18.59,11.94-18.41,0C918.36,648.22,937.11,648.22,936.94,660.16Z" transform="translate(-658.69 -464.01)"/><path class="cls-2" d="M946.6,648.76c.11,7.88-12.26,7.88-12.15,0C934.34,640.88,946.72,640.88,946.6,648.76Z" transform="translate(-658.69 -464.01)"/><path class="cls-2" d="M954.31,640.56c.08,5.67-8.84,5.67-8.75,0C945.47,634.88,954.39,634.88,954.31,640.56Z" transform="translate(-658.69 -464.01)"/><path class="cls-2" d="M961.6,634.18c.07,4.55-7.08,4.55-7,0S961.67,629.63,961.6,634.18Z" transform="translate(-658.69 -464.01)"/><line class="cls-2" x1="335.75" y1="142.88" x2="302.91" y2="167.17"/><line class="cls-2" x1="545.01" y1="327.73" x2="530.82" y2="299.57"/><line class="cls-2" x1="509.82" y1="299.57" x2="499.38" y2="308.67"/><path class="cls-2" d="M1160.54,746.8c.44,26,39.11,26,39.55,0C1199.65,720.8,1161,720.81,1160.54,746.8Z" transform="translate(-658.69 -464.01)"/><path class="cls-2" d="M1153.54,709.45c.4,23.1,34.75,23.09,35.14,0C1188.28,686.36,1153.93,686.36,1153.54,709.45Z" transform="translate(-658.69 -464.01)"/><path class="cls-2" d="M1141.62,678.88c.08,18.24,27.81,18.23,27.88,0S1141.7,660.65,1141.62,678.88Z" transform="translate(-658.69 -464.01)"/><path class="cls-2" d="M1127.68,660.67c-.17,11.94,18.59,11.94,18.41,0C1146.27,648.73,1127.51,648.73,1127.68,660.67Z" transform="translate(-658.69 -464.01)"/><path class="cls-2" d="M1118,649.28c-.11,7.88,12.26,7.88,12.15,0C1130.28,641.4,1117.91,641.4,1118,649.28Z" transform="translate(-658.69 -464.01)"/><path class="cls-2" d="M1110.31,641.07c-.08,5.68,8.84,5.68,8.76,0C1119.15,635.39,1110.23,635.39,1110.31,641.07Z" transform="translate(-658.69 -464.01)"/><path class="cls-2" d="M1103,634.7c-.06,4.55,7.09,4.55,7,0S1103,630.14,1103,634.7Z" transform="translate(-658.69 -464.01)"/><line class="cls-2" x1="411.48" y1="143.4" x2="444.33" y2="167.69"/><path class="cls-2" d="M925.55,621.22l68.9-35.86s34.83,55,75.73,0l65.76,35.55" transform="translate(-658.69 -464.01)"/><polygon class="cls-3" points="334.75 53.77 364.31 43.6 364.31 31.64 334.6 17.28 334.75 53.77"/><polygon class="cls-3" points="356.3 2.17 366.47 31.72 378.43 31.72 392.78 2.01 356.3 2.17"/><polygon class="cls-3" points="408.53 21.6 378.97 31.76 378.97 43.73 408.68 58.08 408.53 21.6"/><polygon class="cls-3" points="392.5 75.04 378.52 45.5 366.56 45.5 350.56 75.72 392.5 75.04"/><polyline class="cls-2" points="339.46 96.06 360.97 96.06 360.97 75.2"/><polyline class="cls-2" points="405.3 96.58 383.79 96.58 383.79 75.72"/><path class="cls-2" d="M1286.26,980.63c-277.79-105-507.14,0-507.14,0" transform="translate(-658.69 -464.01)"/><path class="cls-2" d="M782.6,985.76s182.68-88,421.24-25.38c24.21,6.36,53.68,16.67,78.92,26.34" transform="translate(-658.69 -464.01)"/><path class="cls-2" d="M839,998.77c5.38,15.36-31.82,27.13-36.93,12.21C796.66,995.63,833.86,983.86,839,998.77Z" transform="translate(-658.69 -464.01)"/><path class="cls-2" d="M861.65,992.23c-.06,13.77-21.94,13.77-22,0S861.6,978.45,861.65,992.23Z" transform="translate(-658.69 -464.01)"/><path class="cls-2" d="M908.39,974.64c4.43,15.55-41.85,27.23-45.82,12C858.14,971.07,904.42,959.38,908.39,974.64Z" transform="translate(-658.69 -464.01)"/><path class="cls-2" d="M933,976.19c-2.61,13.42-24.17,9.81-21.62-3.88C914,958.89,935.52,962.5,933,976.19Z" transform="translate(-658.69 -464.01)"/><path class="cls-2" d="M982.28,968.13c1.49,15.92-46.23,19.53-47.33,3.7C933.47,955.92,981.19,952.31,982.28,968.13Z" transform="translate(-658.69 -464.01)"/><path class="cls-2" d="M1006.67,971.1c-3.82,13.1-25,7.75-21.18-5.72C989.31,952.28,1010.47,957.63,1006.67,971.1Z" transform="translate(-658.69 -464.01)"/><path class="cls-2" d="M1056.63,966.32c0,15.91-47.81,15.54-47.49-.38C1009.09,950,1057,950.4,1056.63,966.32Z" transform="translate(-658.69 -464.01)"/><path class="cls-2" d="M1226.58,997.45c-5.39,15.36,31.82,27.13,36.93,12.21C1268.9,994.31,1231.69,982.54,1226.58,997.45Z" transform="translate(-658.69 -464.01)"/><path class="cls-2" d="M1203.9,990.91c.06,13.77,21.95,13.77,22,0S1204,977.13,1203.9,990.91Z" transform="translate(-658.69 -464.01)"/><path class="cls-2" d="M1157.17,973.32c-4.43,15.55,41.85,27.23,45.81,12C1207.42,969.75,1161.14,958.06,1157.17,973.32Z" transform="translate(-658.69 -464.01)"/><path class="cls-2" d="M1132.58,974.87c2.62,13.42,24.17,9.81,21.63-3.88C1151.59,957.57,1130,961.19,1132.58,974.87Z" transform="translate(-658.69 -464.01)"/><path class="cls-2" d="M1083.27,966.81c-1.49,15.92,46.23,19.53,47.33,3.7C1132.09,954.6,1084.37,951,1083.27,966.81Z" transform="translate(-658.69 -464.01)"/><path class="cls-2" d="M1058.89,969.78c3.82,13.1,25,7.75,21.17-5.72C1076.24,951,1055.08,956.31,1058.89,969.78Z" transform="translate(-658.69 -464.01)"/><path class="cls-2" d="M791.4,1158.32" transform="translate(-658.69 -464.01)"/><path class="cls-2" d="M776,1053.36" transform="translate(-658.69 -464.01)"/><path class="cls-2" d="M742.06,1055.36s-13.46-43.15,29.6-85.38l44.26,63.83" transform="translate(-658.69 -464.01)"/><path class="cls-2" d="M757.31,1039s-5-1.79,22.63-60.1" transform="translate(-658.69 -464.01)"/><path class="cls-2" d="M994.45,1105.72" transform="translate(-658.69 -464.01)"/><path class="cls-2" d="M771.66,970s-44,13.7-46.35-57.47c0,0-79.55,22.13-62.8,148.92,0,0,31.9-37.68,77.55-15" transform="translate(-658.69 -464.01)"/><path class="cls-2" d="M740.06,1029.73s-35.51-17.34-79.86,0" transform="translate(-658.69 -464.01)"/><polyline class="cls-2" points="3.28 536.2 84.03 541.69 19.15 488.27"/><path class="cls-2" d="M700.13,926.93S720.34,981,757,987.3" transform="translate(-658.69 -464.01)"/><path class="cls-2" d="M1026,1128.27" transform="translate(-658.69 -464.01)"/><path class="cls-4" d="M1011,992.37c9.47,329.19-417.64,169.27-253.66,46.63l45.52,20.45s-13.23,83.62,54.95,116.81c0,0,37-3.58,37.34-75.35.19-2.77.51-7.89.84-14.42l.14.06s.2-5,.43-12.41c0-.62.05-1.26.07-1.92.58-14.5,1-31.61.69-45.54,0-.35,0-.7,0-1-.11-8.25-.46-14.77-1.17-17.29C924.58,1002.87,1011,992.37,1011,992.37ZM985.08,1009l-57.35,9.42s8,51.14-15.29,129.19C912.44,1147.56,979.6,1161.91,985.08,1009ZM778,1076.37c1.42-5.51,2.59-9.72,1.91-13.14q-.21-1.07-.48-2a8.16,8.16,0,0,0-2.42-4.92,8.35,8.35,0,0,0-8.59-3c-52.56,74.46,22.95,105,22.95,105C782.61,1141.75,778,1128,776,1116.49,773.7,1100.08,776.18,1086.61,778,1076.37Z" transform="translate(-658.69 -464.01)"/><path class="cls-5" d="M897.29,1026.68c.16,14.09-.3,32.81-.69,45.54,0,.66-.05,1.3-.07,1.92-.19,4.45-.38,8.63-.57,12.35l-98.45-43s36.61-23.26,98.59-35.15a166.53,166.53,0,0,1,1.17,17.29C897.28,1026,897.28,1026.33,897.29,1026.68Z" transform="translate(-658.69 -464.01)"/><path class="cls-6" d="M897.27,1025.63a166.53,166.53,0,0,0-1.17-17.29C896.81,1010.86,897.16,1017.38,897.27,1025.63Z" transform="translate(-658.69 -464.01)"/><path class="cls-6" d="M896.53,1074.14c-.23,7.45-.43,12.41-.43,12.41l-.14-.06C896.15,1082.77,896.34,1078.59,896.53,1074.14Z" transform="translate(-658.69 -464.01)"/><line class="cls-2" x1="236.43" y1="636.9" x2="144.14" y2="595.44"/><path class="cls-2" d="M896.53,1074.14c-.19,4.45-.38,8.63-.57,12.35-.33,6.53-.65,11.65-.84,14.42-.35,71.77-37.34,75.35-37.34,75.35-68.18-33.19-54.95-116.81-54.95-116.81L757.31,1039c-164,122.64,263.13,282.56,253.66-46.63,0,0-86.39,10.5-114.87,16a166.53,166.53,0,0,1,1.17,17.29" transform="translate(-658.69 -464.01)"/><path class="cls-2" d="M897.29,1026.68c.32,13.93-.11,31-.69,45.54" transform="translate(-658.69 -464.01)"/><path class="cls-2" d="M768.45,1053.36c4.13.36,6.86,1.35,8.59,3a8.16,8.16,0,0,1,2.42,4.92c.59,3.78-.3,8.84-1.43,15.12-1.85,10.24-4.33,23.71-2.07,40.12,1.7,12.33,6.09,26.32,15.44,41.83" transform="translate(-658.69 -464.01)"/><path class="cls-2" d="M896.53,1074.14c0-.62.05-1.26.07-1.92.39-12.73.85-31.45.69-45.54,0-.35,0-.7,0-1" transform="translate(-658.69 -464.01)"/><path class="cls-2" d="M896.1,1008.34c-62,11.89-98.59,35.15-98.59,35.15l98.45,43" transform="translate(-658.69 -464.01)"/><path class="cls-2" d="M778,1076.37c1.42-5.51,2.59-9.72,1.91-13.14q-.21-1.07-.48-2a13.84,13.84,0,0,0-2.42-4.92,8.35,8.35,0,0,0-8.59-3c-52.56,74.46,22.95,105,22.95,105C782.61,1141.75,778,1128,776,1116.49,772.63,1098.07,775.68,1085.45,778,1076.37Z" transform="translate(-658.69 -464.01)"/><path class="cls-2" d="M912.44,1147.56s67.16,14.35,72.64-138.61l-57.35,9.42S935.69,1069.51,912.44,1147.56Z" transform="translate(-658.69 -464.01)"/><path class="cls-2" d="M994.45,1105.72" transform="translate(-658.69 -464.01)"/><path class="cls-2" d="M1324.14,1055.11s13.46-43.16-29.6-85.38l-44.26,63.83" transform="translate(-658.69 -464.01)"/><path class="cls-2" d="M1308.89,1038.75s5,.19-22.63-58.12" transform="translate(-658.69 -464.01)"/><path class="cls-2" d="M1294.54,969.73s44,13.7,46.35-57.48c0,0,79.55,22.13,62.8,148.93,0,0-31.9-37.68-77.55-15" transform="translate(-658.69 -464.01)"/><path class="cls-2" d="M1326.14,1029.48s35.51-17.35,79.86,0" transform="translate(-658.69 -464.01)"/><polyline class="cls-2" points="745.54 535.94 664.78 541.44 729.66 488.01"/><path class="cls-2" d="M1366.07,926.68s-20.21,54.06-56.83,60.36" transform="translate(-658.69 -464.01)"/><path class="cls-4" d="M1055.23,992.12c-7.84,253,214.7,183.89,214.7,183.89,144-45.75,39-137.26,39-137.26l-45.52,20.45s13.23,83.62-54.95,116.81c0,0-37-3.58-37.34-75.35-.19-2.74-.51-7.87-.84-14.42l-.14.06s-.2-5-.43-12.38c0-.43,0-.88-.05-1.34-.59-14.66-1-32.09-.71-46.2,0-.33,0-.67,0-1,.11-8.25.46-14.77,1.17-17.29C1141.62,1002.62,1055.23,992.12,1055.23,992.12Zm25.89,16.58,57.35,9.42s-8,51.14,15.29,129.19C1153.76,1147.31,1086.6,1161.66,1081.12,1008.7Zm207,67.28c-1.41-5.45-2.55-9.62-1.88-13,.14-.69.29-1.33.47-1.93a8.2,8.2,0,0,1,2.38-4.92,8.37,8.37,0,0,1,8.64-3c52.55,74.47-23,105-23,105,8.79-16.59,13.37-30.36,15.44-41.87C1292.51,1099.73,1290,1086.22,1288.14,1076Z" transform="translate(-658.69 -464.01)"/><path class="cls-5" d="M1168.91,1026.38c-.16,14.32.32,33.45.71,46.2,0,.46,0,.91.05,1.34.19,4.45.38,8.61.57,12.32l98.45-43s-36.61-23.26-98.59-35.15a165.53,165.53,0,0,0-1.17,17.29C1168.92,1025.71,1168.92,1026.05,1168.91,1026.38Z" transform="translate(-658.69 -464.01)"/><path class="cls-4" d="M1168.93,1025.38a165.53,165.53,0,0,1,1.17-17.29C1169.39,1010.61,1169,1017.13,1168.93,1025.38Z" transform="translate(-658.69 -464.01)"/><path class="cls-4" d="M1169.67,1073.92c.23,7.43.43,12.38.43,12.38l.14-.06C1170.05,1082.53,1169.86,1078.37,1169.67,1073.92Z" transform="translate(-658.69 -464.01)"/><line class="cls-2" x1="512.39" y1="636.65" x2="604.68" y2="595.19"/><path class="cls-2" d="M1168.93,1025.38a165.53,165.53,0,0,1,1.17-17.29c-28.48-5.47-114.87-16-114.87-16-7.84,253,214.7,183.89,214.7,183.89,144-45.75,39-137.26,39-137.26l-45.52,20.45s13.23,83.62-54.95,116.81c0,0-37-3.58-37.34-75.35-.19-2.74-.51-7.87-.84-14.42-.19-3.71-.38-7.87-.57-12.32" transform="translate(-658.69 -464.01)"/><path class="cls-2" d="M1169.62,1072.58c-.59-14.66-1-32.09-.71-46.2" transform="translate(-658.69 -464.01)"/><path class="cls-2" d="M1274.8,1158.07c9.36-15.54,13.75-29.54,15.44-41.87,2.27-16.47-.25-30-2.1-40.22-1.12-6.2-2-11.2-1.41-14.94a8.2,8.2,0,0,1,2.38-4.92c1.73-1.64,4.47-2.66,8.64-3" transform="translate(-658.69 -464.01)"/><path class="cls-2" d="M1168.91,1026.38c0-.33,0-.67,0-1" transform="translate(-658.69 -464.01)"/><path class="cls-2" d="M1169.62,1072.58c-.39-12.75-.87-31.88-.71-46.2" transform="translate(-658.69 -464.01)"/><path class="cls-2" d="M1169.67,1073.92c0-.43,0-.88-.05-1.34" transform="translate(-658.69 -464.01)"/><path class="cls-2" d="M1170.1,1008.09c62,11.89,98.59,35.15,98.59,35.15l-98.45,43" transform="translate(-658.69 -464.01)"/><path class="cls-2" d="M1288.14,1076c-1.41-5.45-2.55-9.62-1.88-13,.14-.69.29-1.33.47-1.93a14.1,14.1,0,0,1,2.38-4.92,8.37,8.37,0,0,1,8.64-3c52.55,74.47-23,105-23,105,8.79-16.59,13.37-30.36,15.44-41.87C1293.59,1097.72,1290.49,1085.07,1288.14,1076Z" transform="translate(-658.69 -464.01)"/><path class="cls-2" d="M1081.12,1008.7l57.35,9.42s-8,51.14,15.29,129.19C1153.76,1147.31,1086.6,1161.66,1081.12,1008.7Z" transform="translate(-658.69 -464.01)"/><line class="cls-2" x1="140.78" y1="502.33" x2="140.78" y2="508.58"/><line class="cls-2" x1="603.32" y1="502.33" x2="603.32" y2="507.94"/><line class="cls-2" x1="422.43" y1="656.73" x2="326.53" y2="656.73"/><path class="cls-5" d="M1011,992.37l44.26-.25s-4.13,74,18.08,113.6H994.45C1019.86,1038.76,1011,992.37,1011,992.37Z" transform="translate(-658.69 -464.01)"/><path class="cls-2" d="M1073.31,1105.72H994.45c25.41-67,16.52-113.35,16.52-113.35l44.26-.25S1051.1,1066.12,1073.31,1105.72Z" transform="translate(-658.69 -464.01)"/><path class="cls-2" d="M1051.19,539s9.45,6,18.31,44.67c-1.15-.07-35.25-28.52-74.17,1-1.83-26.39,13.92-45,13.92-45" transform="translate(-658.69 -464.01)"/></svg>